<svg version="1.1" id="Layer_1" xmlns="http://www.w3.org/2000/svg" xmlns:xlink="http://www.w3.org/1999/xlink" x="0px" y="0px" viewBox="0 0 294.43 54.68" style="enable-background:new 0 0 294.43 54.68;" xml:space="preserve">
 <style type="text/css">
  .st0{fill:#005FA3;}
	.st1{fill:#00B259;}
 </style>
 <g>
  <path class="st0" d="M147.55,0h-9.99v21.21H96.72V0h-9.99c-2.37,0-4.3,1.92-4.3,4.3v46.09c0,2.37,1.92,4.29,4.3,4.29h9.99V31.86
		h40.84v22.82h9.99c2.37,0,4.3-1.92,4.3-4.29V4.3C151.85,1.92,149.92,0,147.55,0">
  </path>
  <path class="st0" d="M66.61,0h-9.99v40.29L25.16,8.43C20.17,3.54,16.73,0,8.75,0H0v50.39c0,2.37,1.92,4.29,4.3,4.29h9.99v-40.5
		l31.18,31.65c5.1,5,9.65,8.85,17.05,8.85h8.39V4.3C70.91,1.92,68.97,0,66.61,0">
  </path>
  <path class="st1" d="M192.85,31.23c-3.03,0-3.48-2.85-3.48-4.54c0-1.89,1.09-3.92,3.48-3.92c2.42,0,3.5,1.97,3.5,3.92
		C196.35,28.39,195.9,31.23,192.85,31.23 M192.85,20.26c-4.24,0-7.09,2.75-7.09,6.84c0,3.98,2.85,6.66,7.09,6.66
		c4.26,0,7.12-2.68,7.12-6.66C199.96,23,197.1,20.26,192.85,20.26">
  </path>
  <path class="st1" d="M182.11,15.94h-2.16v13.43l-6.37-11.89c-0.64-1.2-1.23-1.54-2.62-1.54h-2.69v16.28c0,0.67,0.58,1.22,1.29,1.22
		h2.16V20.02l6.38,11.9c0.64,1.19,1.23,1.54,2.62,1.54h2.68V17.16C183.4,16.49,182.82,15.94,182.11,15.94">
  </path>
  <path class="st1" d="M244.88,15.94v7.11h-7.54v-7.11h-2.32c-0.72,0-1.3,0.55-1.3,1.23v15.06c0,0.67,0.58,1.22,1.3,1.22h2.32v-7.72
		h7.54v7.72h2.31c0.72,0,1.3-0.55,1.3-1.22V17.17c0-0.68-0.58-1.23-1.3-1.23H244.88z">
  </path>
  <path class="st1" d="M210.19,20.56h-7.86v11.66c0,0.67,0.58,1.22,1.29,1.22h2.16V23.04h3.19c2.36,0,2.36,2.28,2.36,3.79v6.62h2.15
		c0.72,0,1.3-0.55,1.3-1.22v-6.62C214.78,22.4,213.1,20.56,210.19,20.56">
  </path>
  <g>
   <path class="st1" d="M276.85,20.56h-2.16v10.41h-3.19c-2.36,0-2.36-2.28-2.36-3.79v-6.62h-2.15c-0.72,0-1.3,0.55-1.3,1.23v6.62
			c0,3.21,1.67,5.05,4.59,5.05h7.86V21.79C278.15,21.11,277.57,20.56,276.85,20.56">
   </path>
   <path class="st1" d="M287.76,31.23c-2.35,0-3.19-2.3-3.19-4.27c0-2.02,1.01-4.19,3.24-4.19c2.21,0,3,2.17,3,4.19
			C290.81,29.03,290.01,31.23,287.76,31.23 M288.74,20.26c-1.97,0-3.38,0.99-4.21,1.82l-0.14,0.16v-1.67h-2.01
			c-0.71,0-1.29,0.55-1.29,1.22v15.72c0,0.68,0.58,1.23,1.29,1.23h2.18v-6.56l0.13,0.11c1.14,0.96,2.52,1.46,3.98,1.46
			c5.2,0,5.76-4.74,5.76-6.79C294.43,24.95,293.87,20.26,288.74,20.26">
   </path>
  </g>
  <path class="st1" d="M223.84,30.93c-2,0-3.08-2.05-3.08-3.99c0-0.98,0.24-4.16,3.24-4.16c1.9,0,3.03,1.53,3.03,4.09
		C227.03,29.41,225.83,30.93,223.84,30.93 M229.18,20.56h-2v1.59L227.04,22c-1.17-1.26-2.33-1.75-4.16-1.75
		c-3.95,0-5.74,3.46-5.74,6.69c0,1.96,0.54,6.51,5.53,6.51c1.88,0,3.41-0.63,4.2-1.74l0.15-0.19v0.22c0,2.47-0.31,4.52-4.17,4.52
		h-3.92v1.25c0,0.68,0.58,1.23,1.29,1.23h3.08c4.83,0,7.17-2.12,7.17-6.5V21.79C230.48,21.11,229.9,20.56,229.18,20.56">
  </path>
  <path class="st1" d="M252.29,38.74c-0.71,0-1.29-0.55-1.29-1.22v-1.25h2.08c1.52,0,2.37-0.75,2.37-2.11c0-0.02-5.21-13.6-5.21-13.6
		h3.74l3.43,9.67l2.75-7.69c0.53-1.49,0.95-1.98,2.39-1.98h1.72c-0.05,0.14-5.24,13.19-5.24,13.19c-1.05,2.68-1.97,4.99-5.49,4.99
		H252.29z">
  </path>
 </g>
</svg>