<svg version="1.1" id="Layer_1" xmlns="http://www.w3.org/2000/svg" xmlns:xlink="http://www.w3.org/1999/xlink" x="0px" y="0px" viewBox="0 0 226.69 39.07" style="enable-background:new 0 0 226.69 39.07;" xml:space="preserve">
 <style type="text/css">
  .st0{fill:#FFFFFF;}
	.st1{fill:#0083CA;}
	.st2{clip-path:url(#SVGID_00000005266475699348075710000005412165207686664320_);fill:#0083CA;}
	.st3{clip-path:url(#SVGID_00000005266475699348075710000005412165207686664320_);fill:#0085CB;}
	.st4{clip-path:url(#SVGID_00000005266475699348075710000005412165207686664320_);fill:#0086CC;}
	.st5{clip-path:url(#SVGID_00000005266475699348075710000005412165207686664320_);fill:#0088CD;}
	.st6{clip-path:url(#SVGID_00000005266475699348075710000005412165207686664320_);fill:#008BD0;}
	.st7{clip-path:url(#SVGID_00000005266475699348075710000005412165207686664320_);fill:#008CD1;}
	.st8{clip-path:url(#SVGID_00000005266475699348075710000005412165207686664320_);fill:#008ED2;}
	.st9{clip-path:url(#SVGID_00000005266475699348075710000005412165207686664320_);fill:#0090D3;}
	.st10{clip-path:url(#SVGID_00000005266475699348075710000005412165207686664320_);fill:#0091D4;}
	.st11{clip-path:url(#SVGID_00000005266475699348075710000005412165207686664320_);fill:#0093D5;}
	.st12{clip-path:url(#SVGID_00000005266475699348075710000005412165207686664320_);fill:#0095D6;}
	.st13{clip-path:url(#SVGID_00000005266475699348075710000005412165207686664320_);fill:#0096D7;}
	.st14{clip-path:url(#SVGID_00000005266475699348075710000005412165207686664320_);fill:#009ADA;}
	.st15{clip-path:url(#SVGID_00000005266475699348075710000005412165207686664320_);fill:#009BDB;}
	.st16{clip-path:url(#SVGID_00000005266475699348075710000005412165207686664320_);fill:#009DDC;}
	.st17{clip-path:url(#SVGID_00000005266475699348075710000005412165207686664320_);fill:#009FDD;}
	.st18{clip-path:url(#SVGID_00000005266475699348075710000005412165207686664320_);fill:#00A1DE;}
	.st19{clip-path:url(#SVGID_00000005266475699348075710000005412165207686664320_);fill:#00A2DF;}
	.st20{clip-path:url(#SVGID_00000005266475699348075710000005412165207686664320_);fill:#00A4E0;}
	.st21{clip-path:url(#SVGID_00000005266475699348075710000005412165207686664320_);fill:#00A6E2;}
	.st22{clip-path:url(#SVGID_00000005266475699348075710000005412165207686664320_);fill:#00AAE4;}
	.st23{clip-path:url(#SVGID_00000005266475699348075710000005412165207686664320_);fill:#00ACE5;}
	.st24{clip-path:url(#SVGID_00000005266475699348075710000005412165207686664320_);fill:#00AEE6;}
	.st25{clip-path:url(#SVGID_00000005266475699348075710000005412165207686664320_);fill:#00B0E7;}
	.st26{clip-path:url(#SVGID_00000005266475699348075710000005412165207686664320_);fill:#00B2E9;}
	.st27{clip-path:url(#SVGID_00000005266475699348075710000005412165207686664320_);fill:#00B3EA;}
	.st28{clip-path:url(#SVGID_00000005266475699348075710000005412165207686664320_);fill:#00B5EB;}
	.st29{clip-path:url(#SVGID_00000005266475699348075710000005412165207686664320_);fill:#00B8EC;}
	.st30{clip-path:url(#SVGID_00000005266475699348075710000005412165207686664320_);fill:#09BCEF;}
	.st31{clip-path:url(#SVGID_00000005266475699348075710000005412165207686664320_);fill:#15BEF0;}
	.st32{clip-path:url(#SVGID_00000005266475699348075710000005412165207686664320_);fill:#1CC1F2;}
	.st33{clip-path:url(#SVGID_00000005266475699348075710000005412165207686664320_);fill:#20C4F4;}
	.st34{clip-path:url(#SVGID_00000005266475699348075710000005412165207686664320_);fill:#32C5F4;}
	.st35{clip-path:url(#SVGID_00000005266475699348075710000005412165207686664320_);fill:#3EC7F4;}
	.st36{clip-path:url(#SVGID_00000005266475699348075710000005412165207686664320_);fill:#49C8F5;}
	.st37{clip-path:url(#SVGID_00000005266475699348075710000005412165207686664320_);fill:#52CAF5;}
	.st38{clip-path:url(#SVGID_00000005266475699348075710000005412165207686664320_);fill:#5BCBF5;}
	.st39{clip-path:url(#SVGID_00000005266475699348075710000005412165207686664320_);fill:#66CEF6;}
	.st40{clip-path:url(#SVGID_00000005266475699348075710000005412165207686664320_);fill:#6DCFF6;}
	.st41{clip-path:url(#SVGID_00000005266475699348075710000005412165207686664320_);fill:#74D1F6;}
	.st42{clip-path:url(#SVGID_00000005266475699348075710000005412165207686664320_);fill:#7BD3F7;}
	.st43{clip-path:url(#SVGID_00000005266475699348075710000005412165207686664320_);fill:#81D4F7;}
	.st44{clip-path:url(#SVGID_00000005266475699348075710000005412165207686664320_);fill:#87D6F8;}
	.st45{clip-path:url(#SVGID_00000005266475699348075710000005412165207686664320_);fill:#8ED8F8;}
	.st46{clip-path:url(#SVGID_00000005266475699348075710000005412165207686664320_);fill:#94D9F8;}
	.st47{clip-path:url(#SVGID_00000005266475699348075710000005412165207686664320_);fill:#9ADBF9;}
	.st48{clip-path:url(#SVGID_00000005266475699348075710000005412165207686664320_);fill:#9FDDF9;}
	.st49{clip-path:url(#SVGID_00000005266475699348075710000005412165207686664320_);fill:#A8E0F9;}
	.st50{clip-path:url(#SVGID_00000005266475699348075710000005412165207686664320_);fill:#AEE2FA;}
	.st51{clip-path:url(#SVGID_00000005266475699348075710000005412165207686664320_);fill:#B3E4FA;}
	.st52{clip-path:url(#SVGID_00000005266475699348075710000005412165207686664320_);fill:#B9E5FB;}
	.st53{clip-path:url(#SVGID_00000005266475699348075710000005412165207686664320_);fill:#BFE7FB;}
	.st54{clip-path:url(#SVGID_00000005266475699348075710000005412165207686664320_);fill:#C4E9FB;}
	.st55{clip-path:url(#SVGID_00000005266475699348075710000005412165207686664320_);fill:#C9EBFC;}
	.st56{clip-path:url(#SVGID_00000005266475699348075710000005412165207686664320_);fill:#CFEDFC;}
	.st57{clip-path:url(#SVGID_00000005266475699348075710000005412165207686664320_);fill:#D4EFFC;}
	.st58{clip-path:url(#SVGID_00000005266475699348075710000005412165207686664320_);fill:#D9F1FD;}
	.st59{clip-path:url(#SVGID_00000005266475699348075710000005412165207686664320_);fill:#E1F4FD;}
	.st60{clip-path:url(#SVGID_00000005266475699348075710000005412165207686664320_);fill:#E7F6FD;}
	.st61{clip-path:url(#SVGID_00000005266475699348075710000005412165207686664320_);fill:#ECF8FE;}
	.st62{clip-path:url(#SVGID_00000005266475699348075710000005412165207686664320_);fill:#F1FAFE;}
	.st63{clip-path:url(#SVGID_00000005266475699348075710000005412165207686664320_);fill:#F7FCFE;}
	.st64{clip-path:url(#SVGID_00000005266475699348075710000005412165207686664320_);fill:#FFFFFF;}
	.st65{fill:#006EB3;}
 </style>
 <g>
  <path class="st0" d="M39.06,19.53c0,10.79-8.76,19.54-19.53,19.54C8.74,39.07,0,30.32,0,19.53C0,8.75,8.74,0,19.54,0
		C30.3,0,39.06,8.75,39.06,19.53">
  </path>
  <path class="st1" d="M19.53,38.09c10.29,0,18.62-8.34,18.62-18.62c0-10.28-8.33-18.62-18.62-18.62C9.25,0.85,0.92,9.18,0.92,19.47
		C0.92,29.76,9.25,38.09,19.53,38.09">
  </path>
  <g>
   <defs>
    <path id="SVGID_1_" d="M0.92,19.47c0,10.29,8.33,18.62,18.61,18.62c10.29,0,18.62-8.34,18.62-18.62
				c0-10.28-8.33-18.61-18.62-18.61C9.25,0.85,0.92,9.19,0.92,19.47">
    </path>
   </defs>
   <clipPath id="SVGID_00000174592976631048283530000011270803975799930298_">
    <use href="#SVGID_1_" style="overflow:visible;">
    </use>
   </clipPath>
   <path style="clip-path:url(#SVGID_00000174592976631048283530000011270803975799930298_);fill:#0083CA;" d="M19.61,27.92
			c8.18,0,15.19,2.27,18.2,5.51c1-2.31,1.55-4.87,1.55-7.54c0-10.67-8.85-19.33-19.75-19.33C8.7,6.56-0.15,15.22-0.15,25.89
			c0,2.68,0.56,5.23,1.57,7.54C4.42,30.19,11.43,27.92,19.61,27.92">
   </path>
   <path style="clip-path:url(#SVGID_00000174592976631048283530000011270803975799930298_);fill:#0085CB;" d="M19.61,27.94
			c8.16,0,15.16,2.25,18.15,5.47c1-2.29,1.55-4.83,1.55-7.48c0-10.59-8.82-19.2-19.7-19.2C8.73,6.72-0.1,15.34-0.1,25.93
			c0,2.66,0.56,5.19,1.56,7.48C4.45,30.19,11.45,27.94,19.61,27.94">
   </path>
   <path style="clip-path:url(#SVGID_00000174592976631048283530000011270803975799930298_);fill:#0086CC;" d="M19.61,27.96
			c8.14,0,15.12,2.23,18.11,5.43c1-2.27,1.55-4.79,1.55-7.42c0-10.5-8.8-19.07-19.65-19.07c-10.85,0-19.66,8.57-19.66,19.08
			c0,2.64,0.56,5.15,1.56,7.42C4.49,30.19,11.47,27.96,19.61,27.96">
   </path>
   <path style="clip-path:url(#SVGID_00000174592976631048283530000011270803975799930298_);fill:#0088CD;" d="M19.6,27.98
			c8.12,0,15.08,2.22,18.06,5.38c0.99-2.25,1.54-4.75,1.54-7.36c0-10.42-8.78-18.94-19.6-18.94C8.78,7.05,0,15.58,0,26
			c0,2.61,0.56,5.11,1.55,7.36C4.52,30.2,11.49,27.98,19.6,27.98">
   </path>
   <path style="clip-path:url(#SVGID_00000174592976631048283530000011270803975799930298_);fill:#008BD0;" d="M19.6,28
			c8.1,0,15.04,2.2,18.01,5.34c0.99-2.23,1.54-4.71,1.54-7.3c0-10.33-8.76-18.82-19.55-18.82c-10.79,0-19.56,8.49-19.56,18.82
			c0,2.59,0.56,5.06,1.55,7.3C4.56,30.2,11.51,28,19.6,28">
   </path>
   <path style="clip-path:url(#SVGID_00000174592976631048283530000011270803975799930298_);fill:#008CD1;" d="M19.6,28.02
			c8.07,0,15,2.18,17.96,5.29c0.99-2.21,1.54-4.67,1.54-7.24c0-10.25-8.73-18.69-19.5-18.69c-10.77,0-19.51,8.45-19.51,18.69
			c0,2.57,0.56,5.03,1.55,7.24C4.6,30.2,11.52,28.02,19.6,28.02">
   </path>
   <path style="clip-path:url(#SVGID_00000174592976631048283530000011270803975799930298_);fill:#008ED2;" d="M19.6,28.04
			c8.05,0,14.96,2.16,17.92,5.25c0.99-2.2,1.53-4.63,1.53-7.18c0-10.16-8.71-18.56-19.45-18.56c-10.74,0-19.46,8.4-19.46,18.56
			c0,2.55,0.55,4.98,1.54,7.18C4.63,30.2,11.54,28.04,19.6,28.04">
   </path>
   <path style="clip-path:url(#SVGID_00000174592976631048283530000011270803975799930298_);fill:#0090D3;" d="M19.59,28.06
			c8.03,0,14.92,2.15,17.87,5.2c0.99-2.18,1.53-4.59,1.53-7.12c0-10.07-8.69-18.43-19.4-18.43c-10.71,0-19.41,8.36-19.41,18.43
			c0,2.53,0.55,4.94,1.54,7.11C4.67,30.21,11.56,28.06,19.59,28.06">
   </path>
   <path style="clip-path:url(#SVGID_00000174592976631048283530000011270803975799930298_);fill:#0091D4;" d="M19.59,28.08
			c8.01,0,14.88,2.13,17.82,5.15c0.98-2.16,1.53-4.55,1.53-7.05c0-9.99-8.67-18.3-19.35-18.3c-10.68,0-19.35,8.32-19.35,18.3
			c0,2.51,0.55,4.9,1.53,7.05C4.71,30.21,11.58,28.08,19.59,28.08">
   </path>
   <path style="clip-path:url(#SVGID_00000174592976631048283530000011270803975799930298_);fill:#0093D5;" d="M19.59,28.1
			c7.99,0,14.84,2.11,17.78,5.11c0.98-2.14,1.52-4.51,1.52-6.99c0-9.9-8.64-18.17-19.3-18.17c-10.65,0-19.3,8.27-19.3,18.17
			c0,2.48,0.54,4.86,1.53,6.99C4.74,30.21,11.6,28.1,19.59,28.1">
   </path>
   <path style="clip-path:url(#SVGID_00000174592976631048283530000011270803975799930298_);fill:#0095D6;" d="M19.59,28.12
			c7.97,0,14.8,2.09,17.73,5.07c0.98-2.12,1.52-4.47,1.52-6.94c0-9.82-8.62-18.04-19.25-18.04c-10.63,0-19.25,8.23-19.25,18.05
			c0,2.46,0.54,4.81,1.53,6.93C4.78,30.21,11.62,28.12,19.59,28.12">
   </path>
   <path style="clip-path:url(#SVGID_00000174592976631048283530000011270803975799930298_);fill:#0096D7;" d="M19.58,28.14
			c7.95,0,14.76,2.07,17.68,5.02c0.98-2.1,1.52-4.43,1.52-6.87c0-9.73-8.6-17.92-19.2-17.92c-10.6,0-19.2,8.19-19.2,17.92
			c0,2.44,0.54,4.77,1.52,6.87C4.82,30.22,11.63,28.14,19.58,28.14">
   </path>
   <path style="clip-path:url(#SVGID_00000174592976631048283530000011270803975799930298_);fill:#009ADA;" d="M19.58,28.16
			c7.93,0,14.73,2.05,17.64,4.98c0.97-2.08,1.51-4.4,1.51-6.81c0-9.65-8.58-17.79-19.15-17.79c-10.57,0-19.15,8.15-19.15,17.79
			c0,2.42,0.54,4.73,1.52,6.81C4.85,30.22,11.65,28.16,19.58,28.16">
   </path>
   <path style="clip-path:url(#SVGID_00000174592976631048283530000011270803975799930298_);fill:#009BDB;" d="M19.58,28.19
			c7.91,0,14.69,2.04,17.59,4.93c0.97-2.06,1.51-4.35,1.51-6.75c0-9.56-8.55-17.66-19.1-17.66c-10.54,0-19.1,8.1-19.1,17.66
			c0,2.4,0.54,4.69,1.51,6.75C4.89,30.22,11.67,28.19,19.58,28.19">
   </path>
   <path style="clip-path:url(#SVGID_00000174592976631048283530000011270803975799930298_);fill:#009DDC;" d="M19.58,28.21
			c7.88,0,14.65,2.02,17.54,4.89c0.97-2.05,1.51-4.31,1.51-6.69c0-9.48-8.53-17.53-19.05-17.53c-10.51,0-19.05,8.06-19.05,17.53
			c0,2.38,0.54,4.65,1.51,6.69C4.93,30.22,11.69,28.21,19.58,28.21">
   </path>
   <path style="clip-path:url(#SVGID_00000174592976631048283530000011270803975799930298_);fill:#009FDD;" d="M19.57,28.23
			c7.86,0,14.61,2,17.49,4.85c0.97-2.03,1.5-4.28,1.5-6.63c0-9.39-8.51-17.41-19-17.41c-10.49,0-19,8.02-19,17.41
			c0,2.36,0.53,4.61,1.5,6.63C4.96,30.23,11.71,28.23,19.57,28.23">
   </path>
   <path style="clip-path:url(#SVGID_00000174592976631048283530000011270803975799930298_);fill:#00A1DE;" d="M19.57,28.25
			c7.84,0,14.57,1.98,17.45,4.8c0.97-2.01,1.5-4.24,1.5-6.57c0-9.31-8.49-17.28-18.95-17.28C9.11,9.2,0.62,17.18,0.62,26.48
			c0,2.34,0.53,4.56,1.5,6.57C5,30.23,11.73,28.25,19.57,28.25">
   </path>
   <path style="clip-path:url(#SVGID_00000174592976631048283530000011270803975799930298_);fill:#00A2DF;" d="M19.57,28.27
			c7.82,0,14.53,1.96,17.4,4.76c0.96-1.99,1.5-4.2,1.5-6.51c0-9.22-8.46-17.15-18.9-17.15c-10.43,0-18.9,7.93-18.9,17.15
			c0,2.31,0.53,4.52,1.49,6.51C5.04,30.23,11.75,28.27,19.57,28.27">
   </path>
   <path style="clip-path:url(#SVGID_00000174592976631048283530000011270803975799930298_);fill:#00A4E0;" d="M19.57,28.29
			c7.8,0,14.49,1.94,17.35,4.71c0.96-1.97,1.5-4.16,1.5-6.45c0-9.13-8.44-17.02-18.85-17.02c-10.4,0-18.85,7.89-18.85,17.02
			c0,2.29,0.53,4.48,1.5,6.45C5.07,30.23,11.76,28.29,19.57,28.29">
   </path>
   <path style="clip-path:url(#SVGID_00000174592976631048283530000011270803975799930298_);fill:#00A6E2;" d="M19.56,28.31
			c7.78,0,14.45,1.93,17.31,4.67c0.96-1.95,1.49-4.12,1.49-6.38c0-9.05-8.42-16.89-18.8-16.89C9.19,9.7,0.77,17.54,0.77,26.59
			c0,2.27,0.53,4.44,1.49,6.38C5.11,30.23,11.78,28.31,19.56,28.31">
   </path>
   <path style="clip-path:url(#SVGID_00000174592976631048283530000011270803975799930298_);fill:#00AAE4;" d="M19.56,28.33
			c7.76,0,14.42,1.91,17.26,4.62c0.96-1.94,1.49-4.08,1.49-6.33c0-8.96-8.39-16.76-18.74-16.76c-10.35,0-18.74,7.8-18.74,16.76
			c0,2.25,0.53,4.4,1.48,6.33C5.14,30.24,11.8,28.33,19.56,28.33">
   </path>
   <path style="clip-path:url(#SVGID_00000174592976631048283530000011270803975799930298_);fill:#00ACE5;" d="M19.56,28.35
			c7.73,0,14.38,1.89,17.21,4.58c0.95-1.91,1.49-4.04,1.49-6.27c0-8.88-8.38-16.63-18.7-16.63c-10.32,0-18.69,7.76-18.69,16.64
			c0,2.23,0.52,4.35,1.48,6.26C5.18,30.24,11.82,28.35,19.56,28.35">
   </path>
   <path style="clip-path:url(#SVGID_00000174592976631048283530000011270803975799930298_);fill:#00AEE6;" d="M19.56,28.37
			c7.71,0,14.34,1.87,17.17,4.53c0.95-1.89,1.48-4,1.48-6.2c0-8.79-8.35-16.51-18.65-16.51c-10.29,0-18.64,7.72-18.64,16.51
			c0,2.21,0.52,4.31,1.47,6.2C5.22,30.24,11.84,28.37,19.56,28.37">
   </path>
   <path style="clip-path:url(#SVGID_00000174592976631048283530000011270803975799930298_);fill:#00B0E7;" d="M19.55,28.39
			c7.69,0,14.3,1.85,17.12,4.49c0.95-1.88,1.48-3.96,1.48-6.14c0-8.7-8.33-16.38-18.6-16.38c-10.26,0-18.59,7.67-18.59,16.38
			c0,2.18,0.52,4.27,1.47,6.14C5.25,30.24,11.86,28.39,19.55,28.39">
   </path>
   <path style="clip-path:url(#SVGID_00000174592976631048283530000011270803975799930298_);fill:#00B2E9;" d="M19.55,28.41
			c7.67,0,14.26,1.83,17.07,4.44c0.95-1.86,1.47-3.92,1.47-6.08c0-8.62-8.3-16.25-18.54-16.25c-10.23,0-18.54,7.63-18.54,16.25
			c0,2.16,0.52,4.23,1.46,6.08C5.29,30.24,11.88,28.41,19.55,28.41">
   </path>
   <path style="clip-path:url(#SVGID_00000174592976631048283530000011270803975799930298_);fill:#00B3EA;" d="M19.55,28.43
			c7.65,0,14.22,1.81,17.02,4.4c0.94-1.84,1.47-3.88,1.47-6.02c0-8.53-8.29-16.12-18.5-16.12c-10.21,0-18.49,7.59-18.49,16.12
			c0,2.14,0.52,4.19,1.46,6.02C5.33,30.25,11.9,28.43,19.55,28.43">
   </path>
   <path style="clip-path:url(#SVGID_00000174592976631048283530000011270803975799930298_);fill:#00B5EB;" d="M19.55,28.45
			c7.63,0,14.18,1.8,16.98,4.36c0.94-1.82,1.47-3.84,1.47-5.96c0-8.45-8.26-15.99-18.44-15.99c-10.18,0-18.44,7.54-18.44,15.99
			c0,2.12,0.51,4.15,1.46,5.96C5.36,30.25,11.91,28.45,19.55,28.45">
   </path>
   <path style="clip-path:url(#SVGID_00000174592976631048283530000011270803975799930298_);fill:#00B8EC;" d="M19.54,28.47
			c7.61,0,14.14,1.78,16.93,4.31c0.94-1.8,1.47-3.8,1.47-5.9c0-8.36-8.24-15.86-18.39-15.86c-10.15,0-18.39,7.5-18.39,15.86
			c0,2.1,0.51,4.1,1.45,5.9C5.4,30.25,11.93,28.47,19.54,28.47">
   </path>
   <path style="clip-path:url(#SVGID_00000174592976631048283530000011270803975799930298_);fill:#09BCEF;" d="M19.54,28.49
			c7.59,0,14.1,1.76,16.88,4.27c0.94-1.78,1.46-3.76,1.46-5.84c0-8.28-8.21-15.73-18.34-15.73C9.42,11.18,1.2,18.64,1.2,26.92
			c0,2.08,0.51,4.06,1.45,5.84C5.43,30.26,11.95,28.49,19.54,28.49">
   </path>
   <path style="clip-path:url(#SVGID_00000174592976631048283530000011270803975799930298_);fill:#15BEF0;" d="M19.54,28.51
			c7.57,0,14.06,1.74,16.83,4.22c0.93-1.77,1.46-3.72,1.46-5.78c0-8.19-8.19-15.61-18.29-15.61c-10.09,0-18.29,7.41-18.29,15.61
			c0,2.05,0.51,4.02,1.44,5.78C5.47,30.26,11.97,28.51,19.54,28.51">
   </path>
   <path style="clip-path:url(#SVGID_00000174592976631048283530000011270803975799930298_);fill:#1CC1F2;" d="M19.54,28.53
			c7.55,0,14.03,1.73,16.79,4.18c0.93-1.75,1.46-3.68,1.46-5.71c0-8.11-8.17-15.48-18.24-15.48C9.47,11.52,1.3,18.89,1.3,27
			c0,2.03,0.51,3.98,1.44,5.71C5.51,30.26,11.99,28.53,19.54,28.53">
   </path>
   <path style="clip-path:url(#SVGID_00000174592976631048283530000011270803975799930298_);fill:#20C4F4;" d="M19.53,28.55
			c7.52,0,13.99,1.71,16.74,4.13c0.93-1.73,1.45-3.64,1.45-5.66c0-8.02-8.15-15.35-18.19-15.35c-10.04,0-18.19,7.33-18.19,15.35
			c0,2.01,0.5,3.93,1.43,5.66C5.54,30.26,12.01,28.55,19.53,28.55">
   </path>
   <path style="clip-path:url(#SVGID_00000174592976631048283530000011270803975799930298_);fill:#32C5F4;" d="M19.53,28.6
			c7.51,0,13.97,1.7,16.72,4.11c0.93-1.72,1.45-3.62,1.45-5.62c0-7.97-8.14-15.26-18.17-15.26c-10.02,0-18.16,7.29-18.16,15.26
			c0,2,0.5,3.91,1.43,5.62C5.56,30.3,12.02,28.6,19.53,28.6">
   </path>
   <path style="clip-path:url(#SVGID_00000174592976631048283530000011270803975799930298_);fill:#3EC7F4;" d="M19.53,28.65
			c7.51,0,13.95,1.69,16.69,4.08c0.93-1.71,1.45-3.6,1.45-5.58c0-7.92-8.13-15.16-18.14-15.16C9.52,11.98,1.4,19.23,1.4,27.14
			c0,1.99,0.5,3.88,1.43,5.58C5.58,30.33,12.03,28.65,19.53,28.65">
   </path>
   <path style="clip-path:url(#SVGID_00000174592976631048283530000011270803975799930298_);fill:#49C8F5;" d="M19.53,28.7
			c7.49,0,13.93,1.67,16.67,4.05c0.92-1.69,1.45-3.57,1.45-5.55c0-7.86-8.12-15.07-18.12-15.07c-9.99,0-18.11,7.21-18.11,15.07
			c0,1.97,0.5,3.86,1.43,5.55C5.6,30.37,12.04,28.7,19.53,28.7">
   </path>
   <path style="clip-path:url(#SVGID_00000174592976631048283530000011270803975799930298_);fill:#52CAF5;" d="M19.53,28.74
			c7.48,0,13.91,1.66,16.65,4.03c0.92-1.69,1.44-3.55,1.44-5.51c0-7.81-8.1-14.97-18.09-14.97c-9.98,0-18.09,7.16-18.09,14.97
			c0,1.96,0.5,3.83,1.43,5.51C5.62,30.41,12.05,28.74,19.53,28.74">
   </path>
   <path style="clip-path:url(#SVGID_00000174592976631048283530000011270803975799930298_);fill:#5BCBF5;" d="M19.53,28.79
			c7.47,0,13.89,1.65,16.63,4c0.92-1.67,1.44-3.53,1.44-5.47c0-7.76-8.09-14.88-18.07-14.88c-9.97,0-18.06,7.12-18.06,14.88
			c0,1.95,0.5,3.81,1.43,5.47C5.64,30.44,12.06,28.79,19.53,28.79">
   </path>
   <path style="clip-path:url(#SVGID_00000174592976631048283530000011270803975799930298_);fill:#66CEF6;" d="M19.53,28.84
			c7.46,0,13.87,1.64,16.61,3.98c0.92-1.66,1.43-3.5,1.43-5.44c0-7.71-8.08-14.78-18.04-14.78c-9.96,0-18.04,7.08-18.04,14.78
			c0,1.93,0.5,3.78,1.43,5.44C5.66,30.48,12.07,28.84,19.53,28.84">
   </path>
   <path style="clip-path:url(#SVGID_00000174592976631048283530000011270803975799930298_);fill:#6DCFF6;" d="M19.53,28.88
			c7.45,0,13.85,1.63,16.59,3.95c0.91-1.65,1.43-3.48,1.43-5.4c0-7.66-8.07-14.69-18.02-14.69c-9.94,0-18.02,7.03-18.02,14.69
			c0,1.92,0.5,3.75,1.42,5.4C5.68,30.51,12.08,28.88,19.53,28.88">
   </path>
   <path style="clip-path:url(#SVGID_00000174592976631048283530000011270803975799930298_);fill:#74D1F6;" d="M19.53,28.93
			c7.45,0,13.83,1.62,16.56,3.92c0.91-1.64,1.43-3.46,1.43-5.36c0-7.6-8.06-14.59-17.99-14.59c-9.93,0-17.99,6.99-17.99,14.59
			c0,1.91,0.5,3.73,1.42,5.36C5.7,30.55,12.09,28.93,19.53,28.93">
   </path>
   <path style="clip-path:url(#SVGID_00000174592976631048283530000011270803975799930298_);fill:#7BD3F7;" d="M19.53,28.98
			c7.43,0,13.81,1.61,16.54,3.9c0.91-1.63,1.43-3.43,1.43-5.33c0-7.55-8.05-14.5-17.97-14.5c-9.91,0-17.97,6.95-17.97,14.5
			c0,1.89,0.5,3.7,1.42,5.33C5.72,30.59,12.1,28.98,19.53,28.98">
   </path>
   <path style="clip-path:url(#SVGID_00000174592976631048283530000011270803975799930298_);fill:#81D4F7;" d="M19.53,29.03
			c7.42,0,13.79,1.6,16.52,3.87c0.91-1.62,1.43-3.41,1.43-5.29c0-7.5-8.03-14.41-17.94-14.41c-9.9,0-17.94,6.91-17.94,14.41
			c0,1.88,0.5,3.68,1.42,5.29C5.73,30.62,12.11,29.03,19.53,29.03">
   </path>
   <path style="clip-path:url(#SVGID_00000174592976631048283530000011270803975799930298_);fill:#87D6F8;" d="M19.53,29.07
			c7.41,0,13.78,1.59,16.5,3.84c0.91-1.61,1.42-3.39,1.42-5.25c0-7.45-8.03-14.31-17.92-14.31c-9.89,0-17.92,6.87-17.92,14.31
			c0,1.87,0.5,3.65,1.41,5.25C5.75,30.66,12.12,29.07,19.53,29.07">
   </path>
   <path style="clip-path:url(#SVGID_00000174592976631048283530000011270803975799930298_);fill:#8ED8F8;" d="M19.53,29.12
			c7.4,0,13.76,1.58,16.47,3.82c0.91-1.6,1.42-3.36,1.42-5.22c0-7.4-8.02-14.22-17.9-14.22c-9.87,0-17.89,6.82-17.89,14.22
			c0,1.86,0.5,3.63,1.41,5.22C5.77,30.7,12.13,29.12,19.53,29.12">
   </path>
   <path style="clip-path:url(#SVGID_00000174592976631048283530000011270803975799930298_);fill:#94D9F8;" d="M19.53,29.17
			c7.39,0,13.74,1.56,16.45,3.79c0.91-1.59,1.42-3.34,1.42-5.18c0-7.35-8-14.13-17.87-14.13c-9.86,0-17.87,6.78-17.87,14.13
			c0,1.84,0.5,3.6,1.41,5.18C5.79,30.73,12.14,29.17,19.53,29.17">
   </path>
   <path style="clip-path:url(#SVGID_00000174592976631048283530000011270803975799930298_);fill:#9ADBF9;" d="M19.53,29.22
			c7.38,0,13.72,1.55,16.43,3.76c0.9-1.58,1.41-3.32,1.41-5.15c0-7.29-7.99-14.03-17.84-14.03c-9.85,0-17.84,6.74-17.84,14.03
			c0,1.83,0.5,3.58,1.41,5.15C5.81,30.77,12.15,29.22,19.53,29.22">
   </path>
   <path style="clip-path:url(#SVGID_00000174592976631048283530000011270803975799930298_);fill:#9FDDF9;" d="M19.53,29.26
			c7.37,0,13.7,1.54,16.41,3.74c0.9-1.56,1.41-3.29,1.41-5.11c0-7.24-7.98-13.94-17.82-13.94c-9.83,0-17.82,6.7-17.82,13.94
			c0,1.81,0.49,3.55,1.41,5.11C5.83,30.81,12.16,29.26,19.53,29.26">
   </path>
   <path style="clip-path:url(#SVGID_00000174592976631048283530000011270803975799930298_);fill:#A8E0F9;" d="M19.54,29.31
			c7.36,0,13.68,1.53,16.39,3.71c0.9-1.55,1.41-3.27,1.41-5.08c0-7.19-7.97-13.84-17.8-13.84c-9.82,0-17.8,6.66-17.8,13.84
			c0,1.8,0.49,3.53,1.41,5.08C5.85,30.84,12.17,29.31,19.54,29.31">
   </path>
   <path style="clip-path:url(#SVGID_00000174592976631048283530000011270803975799930298_);fill:#AEE2FA;" d="M19.54,29.36
			c7.35,0,13.67,1.52,16.36,3.68c0.9-1.54,1.41-3.25,1.41-5.03c0-7.14-7.96-13.75-17.77-13.75c-9.8,0-17.77,6.62-17.77,13.75
			c0,1.79,0.49,3.5,1.4,5.03C5.87,30.88,12.18,29.36,19.54,29.36">
   </path>
   <path style="clip-path:url(#SVGID_00000174592976631048283530000011270803975799930298_);fill:#B3E4FA;" d="M19.54,29.4
			c7.34,0,13.65,1.51,16.34,3.66c0.89-1.53,1.4-3.22,1.4-5c0-7.08-7.95-13.66-17.74-13.66c-9.79,0-17.75,6.57-17.75,13.66
			c0,1.77,0.49,3.47,1.4,5C5.89,30.91,12.19,29.4,19.54,29.4">
   </path>
   <path style="clip-path:url(#SVGID_00000174592976631048283530000011270803975799930298_);fill:#B9E5FB;" d="M19.54,29.45
			c7.33,0,13.63,1.5,16.32,3.63c0.89-1.52,1.4-3.2,1.4-4.96c0-7.03-7.94-13.56-17.72-13.56c-9.78,0-17.72,6.53-17.72,13.56
			c0,1.76,0.49,3.45,1.4,4.96C5.9,30.95,12.2,29.45,19.54,29.45">
   </path>
   <path style="clip-path:url(#SVGID_00000174592976631048283530000011270803975799930298_);fill:#BFE7FB;" d="M19.54,29.5
			c7.32,0,13.61,1.49,16.3,3.61c0.89-1.51,1.4-3.18,1.4-4.93c0-6.98-7.92-13.47-17.69-13.47c-9.77,0-17.7,6.49-17.7,13.47
			c0,1.75,0.49,3.42,1.4,4.93C5.92,30.99,12.21,29.5,19.54,29.5">
   </path>
   <path style="clip-path:url(#SVGID_00000174592976631048283530000011270803975799930298_);fill:#C4E9FB;" d="M19.54,29.55
			c7.31,0,13.59,1.48,16.28,3.58c0.89-1.5,1.39-3.15,1.39-4.89c0-6.93-7.91-13.37-17.67-13.37c-9.75,0-17.67,6.45-17.67,13.37
			c0,1.74,0.49,3.4,1.4,4.89C5.94,31.02,12.22,29.55,19.54,29.55">
   </path>
   <path style="clip-path:url(#SVGID_00000174592976631048283530000011270803975799930298_);fill:#C9EBFC;" d="M19.54,29.59
			c7.3,0,13.57,1.46,16.25,3.55c0.89-1.49,1.39-3.13,1.39-4.86c0-6.87-7.9-13.28-17.64-13.28c-9.74,0-17.65,6.41-17.65,13.28
			c0,1.72,0.49,3.37,1.39,4.86C5.96,31.06,12.24,29.59,19.54,29.59">
   </path>
   <path style="clip-path:url(#SVGID_00000174592976631048283530000011270803975799930298_);fill:#CFEDFC;" d="M19.54,29.64
			c7.29,0,13.55,1.45,16.23,3.53c0.88-1.48,1.39-3.11,1.39-4.82c0-6.82-7.89-13.18-17.62-13.18c-9.72,0-17.62,6.36-17.62,13.18
			c0,1.71,0.49,3.34,1.39,4.82C5.98,31.1,12.24,29.64,19.54,29.64">
   </path>
   <path style="clip-path:url(#SVGID_00000174592976631048283530000011270803975799930298_);fill:#D4EFFC;" d="M19.54,29.69
			c7.28,0,13.53,1.44,16.21,3.5c0.88-1.46,1.39-3.08,1.39-4.78c0-6.77-7.88-13.09-17.6-13.09c-9.71,0-17.6,6.32-17.6,13.09
			c0,1.7,0.49,3.31,1.39,4.78C6,31.13,12.26,29.69,19.54,29.69">
   </path>
   <path style="clip-path:url(#SVGID_00000174592976631048283530000011270803975799930298_);fill:#D9F1FD;" d="M19.54,29.74
			c7.27,0,13.51,1.43,16.19,3.47c0.88-1.45,1.38-3.06,1.38-4.74c0-6.72-7.87-13-17.57-13c-9.7,0-17.58,6.28-17.58,13
			c0,1.69,0.49,3.29,1.39,4.74C6.02,31.17,12.26,29.74,19.54,29.74">
   </path>
   <path style="clip-path:url(#SVGID_00000174592976631048283530000011270803975799930298_);fill:#E1F4FD;" d="M19.54,29.78
			c7.26,0,13.49,1.42,16.16,3.45c0.88-1.45,1.38-3.04,1.38-4.71c0-6.67-7.86-12.9-17.55-12.9c-9.68,0-17.55,6.24-17.55,12.9
			c0,1.67,0.49,3.26,1.38,4.71C6.04,31.2,12.28,29.78,19.54,29.78">
   </path>
   <path style="clip-path:url(#SVGID_00000174592976631048283530000011270803975799930298_);fill:#E7F6FD;" d="M19.54,29.83
			c7.25,0,13.47,1.41,16.14,3.42c0.88-1.43,1.38-3.02,1.38-4.67c0-6.62-7.85-12.81-17.52-12.81c-9.67,0-17.53,6.2-17.53,12.81
			c0,1.66,0.49,3.24,1.39,4.67C6.06,31.24,12.29,29.83,19.54,29.83">
   </path>
   <path style="clip-path:url(#SVGID_00000174592976631048283530000011270803975799930298_);fill:#ECF8FE;" d="M19.54,29.88
			c7.24,0,13.45,1.4,16.12,3.4c0.88-1.42,1.37-2.99,1.37-4.64c0-6.56-7.83-12.71-17.49-12.71c-9.66,0-17.5,6.15-17.5,12.71
			c0,1.64,0.49,3.21,1.38,4.64C6.08,31.28,12.3,29.88,19.54,29.88">
   </path>
   <path style="clip-path:url(#SVGID_00000174592976631048283530000011270803975799930298_);fill:#F1FAFE;" d="M19.54,29.93
			c7.23,0,13.43,1.39,16.1,3.37c0.87-1.41,1.37-2.97,1.37-4.6c0-6.51-7.83-12.62-17.47-12.62c-9.64,0-17.48,6.11-17.48,12.62
			c0,1.63,0.49,3.19,1.38,4.6C6.09,31.31,12.31,29.93,19.54,29.93">
   </path>
   <path style="clip-path:url(#SVGID_00000174592976631048283530000011270803975799930298_);fill:#F7FCFE;" d="M19.54,29.97
			c7.22,0,13.42,1.38,16.08,3.34c0.87-1.4,1.37-2.94,1.37-4.56c0-6.46-7.81-12.52-17.45-12.52c-9.63,0-17.45,6.07-17.45,12.52
			c0,1.62,0.49,3.16,1.38,4.56C6.11,31.35,12.32,29.97,19.54,29.97">
   </path>
   <path style="clip-path:url(#SVGID_00000174592976631048283530000011270803975799930298_);fill:#FFFFFF;" d="M19.54,30.02
			c7.21,0,13.4,1.37,16.05,3.32c0.87-1.39,1.37-2.92,1.37-4.53c0-6.41-7.8-12.43-17.42-12.43c-9.62,0-17.43,6.03-17.43,12.43
			c0,1.61,0.49,3.14,1.38,4.53C6.13,31.38,12.33,30.02,19.54,30.02">
   </path>
  </g>
  <path class="st1" d="M19.53,24.17c-6.31,0-12.17,1.07-17.01,2.87c2.9,6.51,9.42,11.04,17.01,11.04c7.58,0,14.1-4.54,17.01-11.04
		C31.71,25.24,25.85,24.17,19.53,24.17">
  </path>
  <polygon class="st65" points="226.69,8.4 219.97,8.4 211.67,16.46 213.25,8.4 207.38,8.4 203.05,30.47 208.92,30.47 210.72,21.31 
		215.9,30.47 223.03,30.47 215.99,18.64 	">
  </polygon>
  <path class="st65" d="M162.12,14.05c0.71-3.68-1.42-5.86-5.68-5.85l-10.22,0.03l-4.3,22.44l10.21-0.03
		c5.17-0.02,8.23-2.29,9.09-6.75c0.48-2.48-0.14-4.38-1.75-5.42C160.87,17.4,161.76,15.91,162.12,14.05 M155.82,23.63
		c-0.28,1.44-0.96,2.32-3.48,2.47v0.01h-0.13c-0.19,0.01-0.39,0.02-0.61,0.02l-0.24,0V26.1h-2.98l0.98-5.11h2.98h0.25
		C156.33,20.98,156,22.7,155.82,23.63 M156.58,14.65c-0.27,1.41-0.75,1.87-2.32,1.97h-1.05h-0.19h-2.86l0.75-3.89h3.05h0.25
		C156.73,12.72,156.86,13.23,156.58,14.65">
  </path>
  <polygon class="st65" points="68.01,7.99 63.17,21.08 61.62,8.02 57.2,8.03 50.78,21.12 50.81,8.05 45.3,8.07 45.29,30.89 
		50.66,30.87 57.51,18 59.49,30.84 64.87,30.82 73.51,7.97 	">
  </polygon>
  <path class="st65" d="M82.67,7.8c-4.24,0.01-9.67,2.05-11.52,11.66c-1.84,9.61,2.82,11.61,7.06,11.6
		c4.23-0.02,9.67-2.05,11.52-11.66C91.57,9.79,86.9,7.79,82.67,7.8 M79.12,26.31c-0.8,0-3.24,0.02-1.92-6.87
		c1.32-6.88,3.76-6.89,4.56-6.89c0.8,0,3.24-0.01,1.92,6.87C82.36,26.3,79.92,26.31,79.12,26.31">
  </path>
  <path class="st65" d="M102.77,7.8c-4.24,0.01-9.67,2.05-11.52,11.66c-1.84,9.61,2.82,11.61,7.06,11.6
		c4.23-0.02,9.67-2.05,11.52-11.66C111.66,9.79,107,7.79,102.77,7.8 M99.21,26.32c-0.8,0-3.24,0.01-1.92-6.87
		c1.32-6.88,3.76-6.89,4.56-6.89c0.8,0,3.24-0.01,1.92,6.87C102.45,26.3,100.02,26.31,99.21,26.32">
  </path>
  <path class="st65" d="M123.61,21.8c2.75-1.55,4.57-4.57,4.57-8.47c0-5.78-6.88-5.21-6.88-5.21h-7.14l-4.76,22.54h5.32l1.56-7.71
		h2.08c0.64,0.11,1.52,0.5,1.64,1.76c0.21,2.03,0.51,6.04,0.51,6.04h5.35c0,0-0.48-5.51-0.61-6.34
		C125.13,23.6,124.87,22.44,123.61,21.8 M118.61,12.3c1.45,0,4.93-1.16,4.33,2.96c-0.6,4.12-5.58,3.58-5.58,3.58L118.61,12.3z">
  </path>
  <polygon class="st65" points="128.18,30.69 134.09,30.67 138.36,8.38 132.45,8.41 	">
  </polygon>
  <path class="st65" d="M172.52,8.3l-12.68,22.27h5.98l2.35-4.25l6.89,0.05l0.49,4.19h5.55L177.71,8.3H172.52z M170.56,22.09
		l3.35-6.56l0.8,6.57L170.56,22.09z">
  </path>
  <polygon class="st65" points="199.34,8.29 197.04,21.03 192.41,8.29 186.79,8.29 182.49,30.58 187.7,30.44 190.25,16.95 
		194.9,30.58 200.16,30.58 204.47,8.29 	">
  </polygon>
 </g>
</svg>